<svg xmlns="http://www.w3.org/2000/svg" version="1.1" xmlns:xlink="http://www.w3.org/1999/xlink" xmlns:svgjs="http://svgjs.dev/svgjs" width="2000" height="727" viewBox="0 0 2000 727"><g transform="matrix(1,0,0,1,-1.2121212121212466,0.43249482772455394)"><svg viewBox="0 0 396 144" data-background-color="#ffffff" preserveAspectRatio="xMidYMid meet" height="727" width="2000" xmlns="http://www.w3.org/2000/svg" xmlns:xlink="http://www.w3.org/1999/xlink"><g id="tight-bounds" transform="matrix(1,0,0,1,0.2400000000000091,-0.0856661006772157)"><svg viewBox="0 0 395.52 144.17133220135443" height="144.17133220135443" width="395.52"><g><svg viewBox="0 0 670.5736156490323 244.43135999999998" height="144.17133220135443" width="395.52"><g transform="matrix(1,0,0,1,0,31.80954563167853)"><svg viewBox="0 0 395.52 180.81226873664292" height="180.81226873664292" width="395.52"><g id="textblocktransform"><svg viewBox="0 0 395.52 180.81226873664292" height="180.81226873664292" width="395.52" id="textblock"><g><svg viewBox="0 0 395.52 129.71354838709678" height="129.71354838709678" width="395.52"><g transform="matrix(1,0,0,1,0,0)"><svg width="395.52" viewBox="1.6 -32.9 130.19 42.7" height="129.71354838709678" data-palette-color="#010c80"><path d="M20.35-32.4Q25.35-32.4 28.18-30.08 31-27.75 31-23.55L31-23.55Q31-19.35 29.05-16.07 27.1-12.8 23.53-10.98 19.95-9.15 15.3-9.15L15.3-9.15 12.4-9.15 11.6 0 1.6 0 3.25-9.5 5.55-32.35 20.35-32.4ZM17.05-16.15Q18.85-17.05 19.63-18.43 20.4-19.8 20.4-21.9L20.4-21.9Q20.4-23.65 19.45-24.53 18.5-25.4 16.5-25.5L16.5-25.5 14.7-25.35 13.35-16.35 17.05-16.15ZM51.8-24.2L52.35-23.8 50-5.8 49.8-0.35 40.95 0.2 41.7-5.3 40.9-5.3Q39.15-1.8 37.2 0.55L37.2 0.55 36.05 0.55Q32.15-0.4 30.65-2.48 29.15-4.55 29.15-7.85L29.15-7.85Q29.15-11.05 30.45-14.23 31.75-17.4 34.45-19.98 37.15-22.55 41.15-23.9L41.15-23.9 41.5-23.9 46.35-23.05 51.8-24.2ZM38.4-7.6Q39.2-7.6 40.3-9.5 41.4-11.4 43.05-15.45L43.05-15.45 43.2-16.55 39.8-17.4Q37.35-17.4 37.35-11.55L37.35-11.55Q37.35-7.6 38.4-7.6L38.4-7.6ZM76.35-23.95Q77.05-21.5 77.05-20.05L77.05-20.05Q77.05-18.05 76.52-16.2 76-14.35 74.85-12.35L74.85-12.35 69.85-2.45Q66.6 4 63.25 6.9 59.9 9.8 55.7 9.8L55.7 9.8Q53.25 9.8 50.25 8.9L50.25 8.9 50.6 1.45 51.35 0.65Q53.55 1.15 55.6 1.15L55.6 1.15Q57.9 1.15 59.5 0.35L59.5 0.35 54.2-23.3 63.1-23.8 63.45-19.25 64.85-9.25 65.5-9.25 67.25-13.6Q68.5-16.6 68.5-19.1L68.5-19.1Q68.5-20.95 67.85-22.1L67.85-22.1 68.25-22.95 76.35-23.95ZM96.64-32.9Q98.89-32.9 101.09-32.55 103.29-32.2 105.04-31.55L105.04-31.55 102.39-23.6 101.69-23.25Q100.49-23.95 98.84-24.38 97.19-24.8 95.74-24.8L95.74-24.8Q91.94-24.8 90.37-22.4 88.79-20 88.79-14.75L88.79-14.75Q88.79-11.1 90.12-9.4 91.44-7.7 94.24-7.7L94.24-7.7Q95.64-7.7 97.42-7.98 99.19-8.25 100.59-8.75L100.59-8.75 101.29-8.3 99.54-0.4Q97.79 0.15 96.27 0.35 94.74 0.55 92.94 0.55L92.94 0.55Q85.74 0.55 81.92-3 78.09-6.55 78.09-13.15L78.09-13.15Q78.09-22.45 82.92-27.68 87.74-32.9 96.64-32.9L96.64-32.9ZM122.34-24.7L117.19-24.7 116.54-20.1 121.44-20.1 126.69-20.25 127.14-19.55 125.64-12.25 119.89-12.4 115.39-12.4 115.09-10.5 114.84-7.65 119.64-7.65 127.99-7.95 128.44-7.25 126.94 0 104.19 0 105.84-9.5 108.19-32.35 131.34-32.35 131.79-31.65 130.24-24.4 122.34-24.7Z" opacity="1" transform="matrix(1,0,0,1,0,0)" fill="#010c80" class="wordmark-text-0" data-fill-palette-color="primary" id="text-0"></path></svg></g></svg></g><g transform="matrix(1,0,0,1,163.310208,160.33580403612905)"><svg viewBox="0 0 232.209792 20.476464700513876" height="20.476464700513876" width="232.209792"><g transform="matrix(1,0,0,1,0,0)"><svg width="232.209792" viewBox="3 -33.1 486.46 42.900000000000006" height="20.476464700513876" data-palette-color="#0080ff"><path d="M12.1 9.3L3 9.3 3-22.4 10.1-22.4 11.35-21.75Q13.6-22 16.2-22.2 18.8-22.4 22.8-22.4L22.8-22.4 24.3-22.4Q27.65-22.4 29.28-21.35 30.9-20.3 31.43-18.63 31.95-16.95 31.95-15L31.95-15 31.95-7.45Q31.95-5.25 31.18-3.55 30.4-1.85 28.5-0.93 26.6 0 23.3 0L23.3 0 21.8 0Q19.1 0 16.43-0.23 13.75-0.45 12.1-0.6L12.1-0.6 12.1 9.3ZM13.65-6.3L13.65-6.3 20.3-6.3Q22.7-6.3 22.7-8.3L22.7-8.3 22.7-14.1Q22.7-15.1 22.3-15.6 21.9-16.1 20.3-16.1L20.3-16.1 19.85-16.1Q16.65-16.1 14.88-15.95 13.1-15.8 12.1-15.7L12.1-15.7 12.1-7.85Q12.1-6.75 12.33-6.53 12.55-6.3 13.65-6.3ZM46.4 0L44.9 0Q40.5 0 38.6-1.65 36.7-3.3 36.7-7.15L36.7-7.15Q36.7-10.7 38.67-12.3 40.65-13.9 44.9-13.9L44.9-13.9 46.45-13.9Q49.25-13.9 51.8-13.7 54.35-13.5 56.2-13.3L56.2-13.3 56.2-14.1Q56.2-14.8 55.9-15.45 55.6-16.1 53.8-16.1L53.8-16.1 51.3-16.1Q45.85-16.1 42.9-15.93 39.95-15.75 39.25-15.6L39.25-15.6 38.7-20.9Q38.7-21.4 40.45-21.73 42.2-22.05 45.25-22.23 48.3-22.4 52.2-22.4L52.2-22.4 57.2-22.4Q60.5-22.4 62.25-21.43 64-20.45 64.65-18.8 65.3-17.15 65.3-15L65.3-15 65.3 0 58.2 0 56.25-1Q55.05-0.75 52.42-0.38 49.8 0 46.4 0L46.4 0ZM47.8-5.9L47.8-5.9 54.7-5.9Q55.8-5.9 56-6.1 56.2-6.3 56.2-7.35L56.2-7.35 56.2-9.1 47.8-9.1Q46.85-9.1 46.4-8.75 45.95-8.4 45.95-7.4L45.95-7.4Q45.95-6.45 46.4-6.18 46.85-5.9 47.8-5.9ZM75.5 9.8L74.15 9.8Q71.4 9.8 69.15 9.28 66.9 8.75 66.05 8.25L66.05 8.25 68.05 2.1Q69.55 2.75 71.27 3.1 73 3.45 74.55 3.45L74.55 3.45 75.1 3.45Q79.45 3.45 81.4 0L81.4 0 78.35 0 68.55-22.4 78.6-22.4 82.9-9.1 83.65-6.05 84.15-6.05 84.9-9.1 89.25-22.4 99.15-22.4 98.35-19.35Q97.4-17.4 96.17-14.88 94.95-12.35 93.65-9.65 92.35-6.95 91.12-4.45 89.9-1.95 88.95 0L88.95 0Q86.5 5 83.3 7.4 80.1 9.8 75.5 9.8L75.5 9.8ZM111.89 0L102.64 0 102.64-22.4 109.89-22.4 111.14-21.8Q112.59-22.05 114.42-22.23 116.24-22.4 118.34-22.4L118.34-22.4 121.04-22.4Q122.49-22.4 123.84-22.03 125.19-21.65 125.84-20.95L125.84-20.95Q126.69-21.4 127.69-21.73 128.69-22.05 130.27-22.23 131.84-22.4 134.29-22.4L134.29-22.4 136.79-22.4Q139.29-22.4 140.64-21.7 141.99-21 142.57-19.95 143.14-18.9 143.27-17.82 143.39-16.75 143.39-16L143.39-16 143.39 0 134.24 0 134.24-14.1Q134.24-16.1 131.84-16.1L131.84-16.1 129.04-16.1Q128.24-16.1 127.94-15.9 127.64-15.7 127.64-15L127.64-15 127.64 0 118.34 0 118.34-14.1Q118.34-16.1 115.94-16.1L115.94-16.1 113.39-16.1Q112.44-16.1 112.17-15.93 111.89-15.75 111.89-15L111.89-15 111.89 0ZM167.44 0L156.79 0Q153.49 0 151.72-0.95 149.94-1.9 149.29-3.58 148.64-5.25 148.64-7.45L148.64-7.45 148.64-15Q148.64-17 149.32-18.68 149.99-20.35 151.74-21.38 153.49-22.4 156.79-22.4L156.79-22.4 167.14-22.4Q171.04-22.4 173.12-21.48 175.19-20.55 175.97-18.88 176.74-17.2 176.74-15L176.74-15 176.74-8.6 167.99-8.6Q163.49-8.6 161.17-8.8 158.84-9 157.89-9.05L157.89-9.05 157.89-8.3Q157.84-6.3 160.29-6.3L160.29-6.3 161.84-6.3Q165.84-6.3 169.24-6.48 172.64-6.65 174.29-6.8L174.29-6.8 177.29-2.05Q177.29-1.55 176.44-1.1 175.59-0.65 173.47-0.33 171.34 0 167.44 0L167.44 0ZM157.89-14.1L157.89-13.4 167.49-13.4 167.49-14.1Q167.49-15.1 167.32-15.5 167.14-15.9 166.24-16 165.34-16.1 163.19-16.1L163.19-16.1 160.29-16.1Q157.89-16.1 157.89-14.1L157.89-14.1ZM191.54 0L182.29 0 182.29-22.4 189.54-22.4 191.54-21.4Q193.64-21.8 196.61-22.1 199.59-22.4 202.19-22.4L202.19-22.4 204.69-22.4Q207.19-22.4 208.54-21.7 209.89-21 210.46-19.95 211.04-18.9 211.16-17.82 211.29-16.75 211.29-16L211.29-16 211.29 0 202.14 0 202.14-14.1Q202.14-16.1 199.74-16.1L199.74-16.1 193.04-16.1Q192.09-16.1 191.81-15.93 191.54-15.75 191.54-15L191.54-15 191.54 0ZM228.84 0L225.74 0Q221.94 0 220.54-1.6 219.14-3.2 219.14-6.4L219.14-6.4 219.14-16.1 215.04-16.1 215.04-22.4 217.14-22.4Q217.99-22.4 218.51-22.73 219.04-23.05 219.19-23.9L219.19-23.9 220.14-29.25 228.34-29.25 228.34-22.4 236.69-22.4 236.69-16.1 228.34-16.1 228.34-8.35Q228.34-7.1 228.94-6.7 229.54-6.3 230.74-6.3L230.74-6.3 235.74-6.3 236.74-0.5Q235.69-0.35 233.54-0.18 231.39 0 228.84 0L228.84 0ZM260.83 9.3L251.73 9.3 251.73-22.4 258.83-22.4 260.08-21.75Q262.33-22 264.93-22.2 267.53-22.4 271.53-22.4L271.53-22.4 273.03-22.4Q276.38-22.4 278-21.35 279.63-20.3 280.16-18.63 280.68-16.95 280.68-15L280.68-15 280.68-7.45Q280.68-5.25 279.91-3.55 279.13-1.85 277.23-0.93 275.33 0 272.03 0L272.03 0 270.53 0Q267.83 0 265.16-0.23 262.48-0.45 260.83-0.6L260.83-0.6 260.83 9.3ZM262.38-6.3L262.38-6.3 269.03-6.3Q271.43-6.3 271.43-8.3L271.43-8.3 271.43-14.1Q271.43-15.1 271.03-15.6 270.63-16.1 269.03-16.1L269.03-16.1 268.58-16.1Q265.38-16.1 263.61-15.95 261.83-15.8 260.83-15.7L260.83-15.7 260.83-7.85Q260.83-6.75 261.06-6.53 261.28-6.3 262.38-6.3ZM295.28 0L286.18 0 286.18-22.4 293.28-22.4 295.18-21.4Q297.48-22.9 301.28-22.9L301.28-22.9Q303.78-22.9 305.68-22.38 307.58-21.85 308.75-21.25 309.93-20.65 310.23-20.4L310.23-20.4 307.73-13.9Q307.23-14.25 305.85-14.85 304.48-15.45 302.63-15.98 300.78-16.5 298.73-16.5L298.73-16.5 298.18-16.5Q296.78-16.5 296.03-16.03 295.28-15.55 295.28-13.95L295.28-13.95 295.28 0ZM334.78 0L320.88 0Q317.58 0 315.93-0.95 314.28-1.9 313.75-3.58 313.23-5.25 313.23-7.45L313.23-7.45 313.23-15Q313.23-17.1 313.78-18.78 314.33-20.45 315.95-21.43 317.58-22.4 320.88-22.4L320.88-22.4 334.78-22.4Q338.08-22.4 339.7-21.43 341.33-20.45 341.85-18.78 342.38-17.1 342.38-15L342.38-15 342.38-7.45Q342.38-5.25 341.85-3.58 341.33-1.9 339.7-0.95 338.08 0 334.78 0L334.78 0ZM324.88-6.3L324.88-6.3 330.83-6.3Q333.23-6.3 333.18-8.3L333.18-8.3 333.18-14.1Q333.18-15.1 332.65-15.6 332.13-16.1 330.83-16.1L330.83-16.1 324.93-16.1Q323.63-16.1 323.08-15.6 322.53-15.1 322.53-14.1L322.53-14.1 322.53-8.3Q322.48-6.3 324.88-6.3ZM367.27 0L356.22 0 345.37-22.4 355.42-22.4 360.17-10.15 361.47-6.55 361.97-6.55 363.27-10.15 368.07-22.4 378.02-22.4 377.22-19.35 367.27 0ZM386.57-24.55L386.57-24.55Q381.52-24.55 381.52-28.85L381.52-28.85Q381.52-31.25 382.79-32.18 384.07-33.1 386.57-33.1L386.57-33.1Q389.22-33.1 390.44-32.18 391.67-31.25 391.67-28.85L391.67-28.85Q391.67-24.55 386.57-24.55ZM391.07 0L381.97 0 381.97-22.4 391.07-22.4 391.07 0ZM406.27 0L404.77 0Q401.47 0 399.84-0.98 398.22-1.95 397.69-3.63 397.17-5.3 397.17-7.45L397.17-7.45 397.17-15Q397.17-16.9 397.69-18.57 398.22-20.25 399.84-21.33 401.47-22.4 404.77-22.4L404.77-22.4 406.32-22.4Q409.97-22.4 412.94-22.2 415.92-22 417.02-21.85L417.02-21.85 417.02-31.7 426.27-31.7 426.27 0 419.02 0 417.07-1Q414.97-0.65 412.54-0.33 410.12 0 406.27 0L406.27 0ZM408.82-6.3L408.82-6.3 415.47-6.3Q416.52-6.3 416.77-6.55 417.02-6.8 417.02-7.8L417.02-7.8 417.02-15.75Q415.77-15.85 414.07-15.98 412.37-16.1 410.32-16.1L410.32-16.1 408.82-16.1Q406.42-16.1 406.42-14.1L406.42-14.1 406.42-8.3Q406.42-7.3 406.97-6.8 407.52-6.3 408.82-6.3ZM450.56 0L439.91 0Q436.62 0 434.84-0.95 433.06-1.9 432.41-3.58 431.76-5.25 431.76-7.45L431.76-7.45 431.76-15Q431.76-17 432.44-18.68 433.12-20.35 434.87-21.38 436.62-22.4 439.91-22.4L439.91-22.4 450.26-22.4Q454.16-22.4 456.24-21.48 458.31-20.55 459.09-18.88 459.87-17.2 459.87-15L459.87-15 459.87-8.6 451.12-8.6Q446.62-8.6 444.29-8.8 441.96-9 441.01-9.05L441.01-9.05 441.01-8.3Q440.96-6.3 443.41-6.3L443.41-6.3 444.96-6.3Q448.96-6.3 452.37-6.48 455.76-6.65 457.41-6.8L457.41-6.8 460.41-2.05Q460.41-1.55 459.56-1.1 458.71-0.65 456.59-0.33 454.46 0 450.56 0L450.56 0ZM441.01-14.1L441.01-13.4 450.62-13.4 450.62-14.1Q450.62-15.1 450.44-15.5 450.26-15.9 449.37-16 448.46-16.1 446.31-16.1L446.31-16.1 443.41-16.1Q441.01-16.1 441.01-14.1L441.01-14.1ZM474.51 0L465.41 0 465.41-22.4 472.51-22.4 474.41-21.4Q476.71-22.9 480.51-22.9L480.51-22.9Q483.01-22.9 484.91-22.38 486.81-21.85 487.99-21.25 489.16-20.65 489.46-20.4L489.46-20.4 486.96-13.9Q486.46-14.25 485.09-14.85 483.71-15.45 481.86-15.98 480.01-16.5 477.96-16.5L477.96-16.5 477.41-16.5Q476.01-16.5 475.26-16.03 474.51-15.55 474.51-13.95L474.51-13.95 474.51 0Z" opacity="1" transform="matrix(1,0,0,1,0,0)" fill="#0080ff" class="slogan-text-1" data-fill-palette-color="secondary" id="text-1"></path></svg></g></svg></g></svg></g></svg></g><g transform="matrix(1,0,0,1,426.1422556490322,0)"><svg viewBox="0 0 244.43135999999998 244.43135999999998" height="244.43135999999998" width="244.43135999999998"><g data-palette-color="#0023ff"><rect width="66.8112384" height="244.43135999999998" fill="#0023ff" stroke="transparent" data-fill-palette-color="accent" x="0" fill-opacity="1"></rect><rect width="66.8112384" height="244.43135999999998" fill="#0023ff" stroke="transparent" data-fill-palette-color="accent" x="81.47711999999999" fill-opacity="0.75"></rect><rect width="66.8112384" height="244.43135999999998" fill="#0023ff" stroke="transparent" data-fill-palette-color="accent" x="162.95423999999997" fill-opacity="0.5"></rect></g></svg></g></svg></g><defs></defs></svg><rect width="395.52" height="144.17133220135443" fill="none" stroke="none" visibility="hidden"></rect></g></svg></g></svg>